<?xml version="1.0" encoding="utf-8"?>
<!-- Generator: Adobe Illustrator 28.1.0, SVG Export Plug-In . SVG Version: 6.00 Build 0)  -->
<svg version="1.1" xmlns="http://www.w3.org/2000/svg" xmlns:xlink="http://www.w3.org/1999/xlink" x="0px" y="0px"
	 viewBox="0 0 269.4 219" style="enable-background:new 0 0 269.4 219;" xml:space="preserve">
<style type="text/css">
	.st0{fill:#FFFFFF;}
</style>
<g id="Layer_2">
</g>
<g id="Layer_1">
	<path class="st0" d="M130.5,142.8c-1.6,0-3.2-0.3-4.8-0.8c-3.7-1.3-6.6-3.9-8.2-7.3c-0.4-0.8-5.9-12.5-10.1-21.4
		c-5.3,0-8.6,0-8.9,0l0,0c-2.9-0.4-5.4-2.2-6.6-4.8c-1-2.1-1-4.4-0.2-6.6c0.8-2.1,2.4-3.8,4.5-4.8c2.1-1,4.4-1.1,6.6-0.4
		c2.2,0.7,4,2.3,4.9,4.4c0.2,0.4,1.5,3.1,3.2,6.7c5.6,0,12.8-0.1,20.6-0.1l-4.3-9.3c-1.6-3.5-1.7-7.4-0.3-11
		c1.4-3.6,4.1-6.5,7.7-8.1c7.4-3.4,16.1-0.5,19.4,6.7c1.6,3.4,6.4,13.7,10.1,21.6c3,0,5.9,0,8.6-0.1l0.2,0l0.2,0
		c2.8,0.4,5.2,2.2,6.4,4.7c2,4.3,0,9.4-4.3,11.4c-4.4,2-9.6,0.2-11.5-4c0,0-1.3-2.7-3.1-6.6c-6.6,0-13.5,0.1-20.4,0.1l4.2,9
		c1.6,3.5,1.7,7.4,0.3,11c-1.4,3.6-4.1,6.5-7.7,8.1C134.9,142.3,132.7,142.8,130.5,142.8L130.5,142.8z M113.5,113.3
		c4.1,8.7,8.9,18.9,9,19.1c1,2.1,2.8,3.7,5,4.5c2.3,0.8,4.8,0.6,7.1-0.4c2.3-1.1,4-2.9,4.9-5.2c0.9-2.2,0.8-4.6-0.2-6.7l-5.3-11.3
		C126.5,113.2,119.3,113.2,113.5,113.3L113.5,113.3z M166.5,113c1.2,2.6,2,4.3,2,4.3c0.7,1.5,2.6,2.1,4.2,1.3
		c1.6-0.8,2.4-2.6,1.7-4.1c-0.4-0.8-1.1-1.4-2.1-1.6C170.5,112.9,168.6,113,166.5,113L166.5,113z M99.1,107.8c0.5,0,2.6,0,5.7,0
		c-1.1-2.4-1.9-4.1-2.1-4.4c-0.3-0.7-0.9-1.2-1.7-1.5c-0.8-0.3-1.7-0.2-2.5,0.2c-0.8,0.4-1.4,1-1.7,1.8c-0.3,0.8-0.3,1.6,0.1,2.3
		C97.2,107,98.1,107.6,99.1,107.8L99.1,107.8z M140.9,83.2c-1.4,0-2.8,0.3-4.1,0.9c-2.3,1.1-4,2.9-4.9,5.2c-0.9,2.2-0.8,4.6,0.2,6.7
		l5.4,11.6c6.7,0,13.7-0.1,20.4-0.1c-3.5-7.5-7.6-16.3-9-19.3C147.5,85.1,144.3,83.2,140.9,83.2L140.9,83.2z"/>
</g>
</svg>
